# xmcd
#
# Track frame offsets:
#	150
#	13879
#	26627
#	40395
#	57224
#	73769
#	85561
#	101645
#	116834
#	132389
#	146664
#	158994
#
# Disc length: 2301 seconds
#
# Revision: 1
# Processed by: cddbd v1.5.2PL0 Copyright (c) Steve Scherf et al.
# Submitted via: audiograbber 1.83.01
#
DISCID=aa08fb0c
DTITLE=Katja Kaye - Alles echt
DYEAR=2008
DGENRE=Country
TTITLE0=Der Erste Kuss
TTITLE1=Zieh' Deine Schuhe Aus
TTITLE2=Alles Okay
TTITLE3=Hamburg Lied
TTITLE4=Gib Mir Den Old Time Rock and Roll
TTITLE5=Die Erde Ist 'ne Scheibe
TTITLE6=18 Räder Und 12 Rosen
TTITLE7=Von Bangkok Bis Nach Singapur
TTITLE8=Er War Rastlos
TTITLE9=Poeten Sind Gefährlich
TTITLE10=Immer Nur Vollgas
TTITLE11=Vertrau' Auf Wunder
EXTD=
EXTT0=
EXTT1=
EXTT2=
EXTT3=
EXTT4=
EXTT5=
EXTT6=
EXTT7=
EXTT8=
EXTT9=
EXTT10=
EXTT11=
PLAYORDER=
